<svg width="58" height="58" xmlns="http://www.w3.org/2000/svg" xmlns:xlink="http://www.w3.org/1999/xlink" xml:space="preserve" overflow="hidden"><defs><clipPath id="clip0"><rect x="382" y="338" width="58" height="58"/></clipPath></defs><g clip-path="url(#clip0)" transform="translate(-382 -338)"><path d="M418.77 341.105C417.584 342.063 416.564 343.208 415.749 344.495 412.795 344.693 409.948 345.682 407.508 347.359 407.377 347.173 407.274 346.969 407.2 346.754 406.807 345.474 405.653 344.187 404.179 342.966 401.587 340.791 397.104 341.921 397.104 341.921 397.177 343.061 397.517 344.168 398.095 345.153 397.633 345.151 397.172 345.194 396.717 345.28 391.8 346.229 387.812 352.27 387.812 352.27 387.812 352.27 390.495 355.321 394.18 355.865 394.131 355.917 394.084 355.971 394.041 356.028 389.619 361.363 391.437 368.583 391.437 368.583 392.793 368.624 394.148 368.498 395.473 368.208 395.6 368.051 395.733 367.894 395.872 367.749 396.906 366.683 398.255 365.978 399.72 365.737 398.482 362.109 400.42 358.164 404.048 356.925 404.742 356.689 405.47 356.563 406.203 356.554L406.318 356.554C408.336 356.558 410.252 357.44 411.568 358.971 412.529 357.729 413.881 356.848 415.404 356.469 415.23 355.881 415.138 355.271 415.133 354.657 415.12 353.833 415.257 353.014 415.537 352.24 416.232 346.199 420.014 343.178 420.22 343.045ZM413.332 350.567C412.421 349.819 411.333 349.32 410.172 349.117 409.947 349.094 409.726 349.043 409.514 348.966 411.008 348.036 412.661 347.391 414.389 347.062 413.913 348.19 413.559 349.364 413.332 350.567Z" fill="#B391FF"/><path d="M427.246 354.554C427.246 357.4 424.939 359.708 422.092 359.708 419.246 359.708 416.939 357.4 416.939 354.554 416.939 351.708 419.246 349.401 422.092 349.401 424.939 349.401 427.246 351.708 427.246 354.554Z" fill="#B391FF"/><path d="M428.189 357.938C427.128 359.84 425.24 361.139 423.083 361.448 422.182 364.144 423.637 367.06 426.333 367.962 429.029 368.863 431.945 367.409 432.847 364.713 433.749 362.016 432.294 359.1 429.598 358.198 429.142 358.046 428.668 357.958 428.189 357.938Z" fill="#B391FF"/><path d="M420.987 363.164C420.983 362.586 421.048 362.01 421.18 361.448 419.096 361.164 417.25 359.957 416.154 358.161 413.358 358.677 411.51 361.362 412.026 364.157 412.542 366.953 415.227 368.801 418.022 368.285 419.507 368.011 420.796 367.1 421.549 365.792 421.193 364.96 421.002 364.068 420.987 363.164Z" fill="#B391FF"/><path d="M427.252 369.979C425.428 369.786 423.754 368.88 422.594 367.459 421.459 368.941 419.776 369.905 417.924 370.136 416.758 372.732 417.917 375.782 420.514 376.948 423.11 378.114 426.16 376.954 427.326 374.358 427.637 373.665 427.791 372.913 427.778 372.154 427.761 371.399 427.582 370.657 427.252 369.979Z" fill="#B391FF"/><path d="M415.658 372.347C415.648 371.582 415.764 370.82 416.003 370.093 414.164 369.797 412.518 368.782 411.429 367.272 408.591 367.448 406.434 369.89 406.609 372.728 406.785 375.565 409.228 377.723 412.065 377.547 413.798 377.44 415.361 376.466 416.22 374.957 415.867 374.131 415.676 373.245 415.658 372.347Z" fill="#B391FF"/><path d="M406.771 367.562C407.789 366.512 409.112 365.809 410.553 365.556 410.291 364.843 410.15 364.092 410.136 363.333 410.123 362.421 410.289 361.516 410.625 360.668 409.05 358.302 405.855 357.66 403.488 359.235 401.122 360.81 400.48 364.005 402.055 366.372 402.924 367.679 404.343 368.517 405.907 368.649 406.16 368.261 406.449 367.897 406.771 367.562Z" fill="#B391FF"/><path d="M405.097 370.365C403.259 370.034 401.63 368.981 400.572 367.441 397.734 367.606 395.567 370.041 395.733 372.879 395.898 375.717 398.333 377.884 401.171 377.719 402.911 377.617 404.482 376.641 405.345 375.126 404.99 374.301 404.801 373.414 404.789 372.516 404.778 371.787 404.882 371.062 405.097 370.365Z" fill="#B391FF"/><path d="M422.479 379.192C420.458 379.149 418.557 378.227 417.271 376.667 417.108 376.872 416.939 377.078 416.752 377.271 415.675 378.388 414.253 379.11 412.716 379.319 411.835 382.022 413.312 384.927 416.015 385.808 418.718 386.689 421.624 385.211 422.504 382.508 422.68 381.97 422.765 381.407 422.757 380.841 422.754 380.28 422.66 379.723 422.479 379.192Z" fill="#B391FF"/><path d="M410.644 381.011C410.638 380.435 410.703 379.861 410.837 379.301 409.095 379.063 407.506 378.177 406.39 376.818 405.278 378.262 403.645 379.214 401.841 379.47 400.955 382.171 402.427 385.079 405.128 385.965 407.454 386.728 409.995 385.747 411.205 383.621 410.851 382.795 410.661 381.909 410.644 381.011Z" fill="#B391FF"/><path d="M417.12 387.844C415.221 387.701 413.461 386.789 412.251 385.318 410.966 386.999 408.983 388.001 406.867 388.037 406.867 388.194 406.867 388.351 406.867 388.514 406.678 391.354 408.827 393.81 411.667 393.999 414.507 394.188 416.963 392.039 417.152 389.199 417.171 388.917 417.166 388.633 417.138 388.351 417.142 388.182 417.136 388.012 417.12 387.844Z" fill="#B391FF"/></g></svg>