<svg width="57" height="58" xmlns="http://www.w3.org/2000/svg" xmlns:xlink="http://www.w3.org/1999/xlink" xml:space="preserve" overflow="hidden"><defs><clipPath id="clip0"><rect x="449" y="338" width="57" height="58"/></clipPath></defs><g clip-path="url(#clip0)" transform="translate(-449 -338)"><path d="M28.5 4.75C15.3832 4.75 4.75 15.3832 4.75 28.5 4.75 41.6168 15.3832 52.25 28.5 52.25 41.6168 52.25 52.25 41.6168 52.25 28.5 52.25 15.3832 41.6168 4.75 28.5 4.75ZM28.5 49.875C16.6949 49.875 7.125 40.3051 7.125 28.5 7.125 16.6949 16.6949 7.125 28.5 7.125 40.3051 7.125 49.875 16.6949 49.875 28.5 49.875 40.3051 40.3051 49.875 28.5 49.875Z" fill="#FFC591" transform="matrix(1 0 0 1.01754 449 338)"/><path d="M24.3438 25.6322 15.3544 16.6606C14.8943 16.1932 14.1424 16.1873 13.6751 16.6474 13.6387 16.6832 13.6046 16.7214 13.5731 16.7616 11.3872 19.5224 10.0174 22.8399 9.61875 26.3388 9.54661 26.9906 10.0166 27.5775 10.6684 27.6497 10.7142 27.6547 10.7602 27.6572 10.8063 27.6569L23.4828 27.6569C24.1385 27.6673 24.6786 27.1442 24.6891 26.4884 24.6942 26.1681 24.5696 25.8594 24.3438 25.6322Z" fill="#FFC591" transform="matrix(1 0 0 1.01754 449 338)"/><path d="M31.4153 24.3734 40.375 15.3959C40.8438 14.9373 40.8521 14.1855 40.3935 13.7166 40.3578 13.6803 40.32 13.6462 40.28 13.6147 37.5223 11.4125 34.2021 10.0281 30.6969 9.61875 30.0454 9.54334 29.4561 10.0103 29.3806 10.6618 29.3751 10.7097 29.3725 10.758 29.3728 10.8063L29.3728 23.5125C29.3521 24.168 29.8668 24.7162 30.5223 24.7369 30.858 24.7474 31.1824 24.6154 31.4153 24.3734Z" fill="#FFC591" transform="matrix(1 0 0 1.01754 449 338)"/><path d="M27.6094 23.5303 27.6094 10.8241C27.6137 10.1683 27.0856 9.63306 26.4298 9.62873 26.3815 9.62837 26.3333 9.63098 26.2853 9.63656 22.7776 10.0528 19.4572 11.4455 16.7022 13.6562 16.1872 14.0624 16.0991 14.8091 16.5052 15.324 16.5368 15.364 16.5708 15.4019 16.6072 15.4375L25.5847 24.3734C26.0498 24.8358 26.8017 24.8336 27.264 24.3685 27.4855 24.1457 27.6096 23.8443 27.6094 23.5303Z" fill="#FFC591" transform="matrix(1 0 0 1.01754 449 338)"/><path d="M23.4828 29.4381 10.83 29.4381C10.1742 29.4334 9.6387 29.9612 9.63395 30.617 9.63359 30.6675 9.63644 30.718 9.6425 30.7681 10.0673 34.2564 11.4574 37.5568 13.6562 40.2978 14.0624 40.8128 14.8091 40.9009 15.324 40.4948 15.364 40.4633 15.4019 40.4292 15.4375 40.3928L24.3438 31.4688C24.8095 31.007 24.8129 30.2552 24.3512 29.7894 24.122 29.5582 23.8082 29.4313 23.4828 29.4381Z" fill="#FFC591" transform="matrix(1 0 0 1.01754 449 338)"/><path d="M32.6562 31.4688 41.5625 40.375C42.0211 40.8438 42.773 40.8521 43.2418 40.3935 43.2781 40.3578 43.3122 40.32 43.3438 40.28 45.5341 37.5363 46.9159 34.2361 47.3338 30.7503 47.4125 30.0992 46.9485 29.5076 46.2974 29.4289 46.2472 29.4228 46.1968 29.42 46.1463 29.4203L33.5172 29.4203C32.8618 29.3961 32.3109 29.9077 32.2866 30.5631 32.274 30.9041 32.4087 31.234 32.6562 31.4688Z" fill="#FFC591" transform="matrix(1 0 0 1.01754 449 338)"/><path d="M33.5172 27.6569 46.1819 27.6569C46.8377 27.6609 47.3726 27.1324 47.3766 26.4766 47.3769 26.4305 47.3744 26.3845 47.3694 26.3388 46.9707 22.8399 45.6009 19.5224 43.415 16.7616 43.0107 16.2452 42.2643 16.1544 41.7479 16.5587 41.7077 16.5902 41.6696 16.6242 41.6338 16.6606L32.6562 25.6322C32.1938 26.0972 32.1959 26.8491 32.6609 27.3116 32.8881 27.5375 33.1969 27.662 33.5172 27.6569Z" fill="#FFC591" transform="matrix(1 0 0 1.01754 449 338)"/><path d="M29.3906 33.5647 29.3906 46.1759C29.3863 46.8317 29.9144 47.3669 30.5702 47.3713 30.6185 47.3716 30.6667 47.369 30.7147 47.3634 34.1859 46.9523 37.4747 45.5854 40.2147 43.415 40.7311 43.0107 40.8219 42.2643 40.4176 41.7479 40.386 41.7077 40.352 41.6696 40.3156 41.6338L31.4094 32.7275C30.941 32.2684 30.1892 32.2758 29.7301 32.7442 29.5151 32.9635 29.3934 33.2576 29.3906 33.5647Z" fill="#FFC591" transform="matrix(1 0 0 1.01754 449 338)"/><path d="M25.5847 32.7275 16.6784 41.6338C16.211 42.0938 16.2051 42.8457 16.6652 43.3131 16.7011 43.3494 16.7392 43.3835 16.7794 43.415 19.5194 45.5854 22.8082 46.9523 26.2794 47.3634 26.9308 47.4389 27.5201 46.9719 27.5956 46.3204 27.6011 46.2725 27.6037 46.2242 27.6034 46.1759L27.6034 33.5647C27.5974 32.9089 27.061 32.3821 26.4052 32.3881 26.0981 32.3908 25.804 32.5125 25.5847 32.7275Z" fill="#FFC591" transform="matrix(1 0 0 1.01754 449 338)"/><path d="M30.875 28.5C30.875 29.8117 29.8117 30.875 28.5 30.875 27.1883 30.875 26.125 29.8117 26.125 28.5 26.125 27.1883 27.1883 26.125 28.5 26.125 29.8117 26.125 30.875 27.1883 30.875 28.5Z" fill="#FFC591" transform="matrix(1 0 0 1.01754 449 338)"/></g></svg>